<?xml version="1.0" encoding="utf-8"?>
<!-- Generator: Adobe Illustrator 19.2.1, SVG Export Plug-In . SVG Version: 6.00 Build 0)  -->
<svg version="1.1" id="Layer_1" xmlns="http://www.w3.org/2000/svg" xmlns:xlink="http://www.w3.org/1999/xlink" x="0px" y="0px"
	 viewBox="0 0 100 100" enable-background="new 0 0 100 100" xml:space="preserve">
<g>
	<g>
		<path fill="#FFFFFF" d="M59.9,41.6c-0.7,0-1.4,0.1-2,0.2c-2.7-4.9-8-8.2-14-8.2c-8.8,0-16,7.2-16,16c0,6,3.3,11.2,8.2,13.9
			c0.3-1.3,0.9-2.5,1.9-3.4l0.1-0.1c-3.6-2.1-6.1-6-6.1-10.4c0-6.6,5.4-12,12-12c5.7,0,10.4,4,11.7,9.3c1.2-0.8,2.7-1.3,4.3-1.3
			c4.4,0,8,3.6,8,8c0,3.4-2.2,6.4-5.2,7.5c0.8,1.1,1.2,2.5,1.2,3.8c4.7-1.6,8-6.1,8-11.3C71.9,47,66.6,41.6,59.9,41.6z M42.9,60.8
			L40.8,63c-1.2,1.2-1.2,3.1,0,4.2c1.2,1.2,3.1,1.2,4.2,0c1.2-1.2,1.2-3.1,0-4.2L42.9,60.8z M49.9,68.8L47.8,71
			c-1.2,1.2-1.2,3.1,0,4.2c1.2,1.2,3.1,1.2,4.2,0c1.2-1.2,1.2-3.1,0-4.2L49.9,68.8z M56.9,60.8L54.8,63c-1.2,1.2-1.2,3.1,0,4.2
			c1.2,1.2,3.1,1.2,4.2,0c1.2-1.2,1.2-3.1,0-4.2L56.9,60.8z"/>
	</g>
</g>
</svg>
